/* XPM */
static char *_3a1ce482d044ff4fa281380dfa1b2042WQLNUtoPZmwHznE[] = {
/* columns rows colors chars-per-pixel */
"32 32 46 1 ",
"  c None",
". c #093F89",
"X c #0A4089",
"o c #0F448C",
"O c #225395",
"+ c #4E75AA",
"@ c #6788B5",
"# c #7392BC",
"$ c #75CBED",
"% c #76CCEE",
"& c #7BC9E8",
"* c #7DC9E8",
"= c #74CDF0",
"- c #74CEF1",
"; c #75D0F5",
": c #76D2F7",
"> c #77D2F7",
", c #78D3F7",
"< c #7BD4F7",
"1 c #7CD4F7",
"2 c #7ED5F7",
"3 c #85CAE5",
"4 c #88CAE4",
"5 c #8ACDE5",
"6 c #9ACDE4",
"7 c #8CD3F0",
"8 c #8CD4F1",
"9 c #87D7F8",
"0 c #87D8F8",
"q c #8BD9F8",
"w c #A5DFF6",
"e c #ACE4F9",
"r c #AEE4F9",
"t c #B1E5FA",
"y c #B2E5FA",
"u c #C7D7E7",
"i c #E0E7F0",
"p c #F3FBFE",
"a c #F6FBFD",
"s c #F4FBFE",
"d c #F5FCFE",
"f c #FAFBFC",
"g c #FCFCFD",
"h c #FDFEFE",
"j c #FDFEFF",
"k c white",
/* pixels */
"                                ",
"                                ",
"                                ",
"                                ",
"                                ",
"                                ",
"                                ",
"                                ",
"            w1:::1w             ",
"           ,:::::::,            ",
"          :::::::::::           ",
"         ::::::::::::,          ",
"        8::::q1::::10,7         ",
"        ::::djfy::rjjd:         ",
"        :::9ji.#::jjoXq         ",
"        :::1jjOu::dj@+1         ",
"        ::::rjs1::1pjy:         ",
"        :::::::::::::::         ",
"        :::::::::::::::         ",
"        :::::::::::::::         ",
"        :::::::::::::::         ",
"        :::::::::::::::         ",
"        :::::::::::::::         ",
"        ::  ::3 4::5 %:         ",
"        =   6%   &*   =         ",
"                                ",
"                                ",
"                                ",
"                                ",
"                                ",
"                                ",
"                                "
};
