/* XPM */
static char *d15e2f59d85c41dbe3928b1221c4a2a6QxcJJtR9YeUsyLGD[] = {
/* columns rows colors chars-per-pixel */
"32 32 31 1 ",
"  c None",
". c #0F448C",
"X c #75CBED",
"o c #76CCEE",
"O c #7BC9E8",
"+ c #7DC9E8",
"@ c #74CDF0",
"# c #74CEF1",
"$ c #75D0F5",
"% c #76D2F7",
"& c #77D2F7",
"* c #78D3F7",
"= c #7BD4F7",
"- c #7CD4F7",
"; c #7ED5F7",
": c #85CAE5",
"> c #88CAE4",
", c #8ACDE5",
"< c #9ACDE4",
"1 c #8CD3F0",
"2 c #8CD4F1",
"3 c #87D8F8",
"4 c #8BD9F8",
"5 c #A5DFF6",
"6 c #ACE4F9",
"7 c #AEE4F9",
"8 c #B1E5FA",
"9 c #B2E5FA",
"0 c #FAFBFC",
"q c #FCFCFD",
"w c white",
/* pixels */
"                                ",
"                                ",
"                                ",
"                                ",
"                                ",
"                                ",
"                                ",
"                                ",
"            5-%%%;5             ",
"           *%%%%%%%*            ",
"          %%%%%%%%%%%           ",
"         %%%%%%%%%%%%%          ",
"        2%%%%4-%%%%%%%1         ",
"        %%%%7w08%%6ww8%         ",
"        %%%%8ww8%%8ww84         ",
"        %%%%8ww7%%8ww8;         ",
"        %%%%7..8%%*..8*         ",
"        %%%%%..%%%%..%%         ",
"        %%%%%%%%%%%%%%%         ",
"        %%%%%%%%%%%%%%%         ",
"        %%%%%%%%%%%%%%%         ",
"        %%%%%%%%%%%%%%%         ",
"        %%%%%%%%%%%%%%%         ",
"        %%  %%: >%%, o%         ",
"        @   <o   ++   @         ",
"                                ",
"                                ",
"                                ",
"                                ",
"                                ",
"                                ",
"                                "
};
