/* XPM */
static char *result[] = {
/* columns rows colors chars-per-pixel */
"32 32 30 1 ",
"  c #F7BA14",
". c #F9BB12",
"X c #FABB12",
"o c #FABC11",
"O c #FABC12",
"+ c #FCBD11",
"@ c #FDBE11",
"# c #FDBE12",
"$ c #FDBF15",
"% c #FDBF16",
"& c #FDBF17",
"* c #F3BA1F",
"= c #FDC01A",
"- c #FDC322",
"; c #FDC427",
": c #FDC52A",
"> c #F7CB55",
", c #EBC769",
"< c #FAD36A",
"1 c #FAD26B",
"2 c #FDD872",
"3 c #13468D",
"4 c #FDDD86",
"5 c #FEEDBF",
"6 c #FFF9EB",
"7 c #FFFAED",
"8 c #FEFAEE",
"9 c #FFFDF9",
"0 c white",
"q c None",
/* pixels */
"qqqqqqqqqqqqqqqqqqqqqqqqqqqqqqqq",
"qqqqqqqqqqqqqqqqqqqqqqqqqqqqqqqq",
"qqqqqqqqqqqqqqqqqqqqqqqqqqqqqqqq",
"qqqqqqqqqqqqqqqqqqqqqqqqqqqqqqqq",
"qqqqqqqqqqqqqqqqqqqqqqqqqqqqqqqq",
"qqqqqqqqqqqqqqqqqqqqqqqqqqqqqqqq",
"qqqqqqqqqqqqqqqqqqqqqqqqqqqqqqqq",
"qqqqqqqqqqqqqqqqqqqqqqqqqqqqqqqq",
"qqqqqqqqqqqqqqqqqqqqqqqqqqqqqqqq",
"qqqqqqqqqqq<&@@@&1qqqqqqqqqqqqqq",
"qqqqqqqqqq=@@@@@@@=qqqqqqqqqqqqq",
"qqqqqqqqq&@@@@@@@@@&qqqqqqqqqqqq",
"qqqqqqqq>@@@33@@@@33>qqqqqqqqqqq",
"qqqqqqqq#@@;33:@@433#qqqqqqqqqqq",
"qqqqqqqq@@@809@@%099@qqqqqqqqqqq",
"qqqqqqqq@@@609@@$099@qqqqqqqqqqq",
"qqqqqqqq@@@275-@@295@qqqqqqqqqqq",
"qqqqqqqq@@@@@@@@@@@@@qqqqqqqqqqq",
"qqqqqqqq@@@@@@@@@@@@@qqqqqqqqqqq",
"qqqqqqqq@@@@@@@@@@@@@qqqqqqqqqqq",
"qqqqqqqq@@@@@@@@@@@@@qqqqqqqqqqq",
"qqqqqqqq@@@@@@@@@@@@@qqqqqqqqqqq",
"qqqqqqqq@Xq+@Oq.@@q*@qqqqqqqqqqq",
"qqqqqqqqoqqq@qqq+,qq qqqqqqqqqqq",
"qqqqqqqqqqqqqqqqqqqqqqqqqqqqqqqq",
"qqqqqqqqqqqqqqqqqqqqqqqqqqqqqqqq",
"qqqqqqqqqqqqqqqqqqqqqqqqqqqqqqqq",
"qqqqqqqqqqqqqqqqqqqqqqqqqqqqqqqq",
"qqqqqqqqqqqqqqqqqqqqqqqqqqqqqqqq",
"qqqqqqqqqqqqqqqqqqqqqqqqqqqqqqqq",
"qqqqqqqqqqqqqqqqqqqqqqqqqqqqqqqq",
"qqqqqqqqqqqqqqqqqqqqqqqqqqqqqqqq"
};
