/* XPM */
static char *_d699a1529694d818349b43ab478287a0qeAdYwm8Kr2uije[] = {
/* columns rows colors chars-per-pixel */
"32 32 58 1 ",
"  c None",
". c #7B1A32",
"X c #543C32",
"o c #624537",
"O c #634637",
"+ c #644635",
"@ c #664737",
"# c #644738",
"$ c #6A4B3A",
"% c #6C4B3A",
"& c #6F4E3C",
"* c #734E3B",
"= c #744D3B",
"- c #714F3D",
"; c #724E3C",
": c #734F3C",
"> c #724F3D",
", c #734F3D",
"< c #546D3A",
"1 c #5B733F",
"2 c #766340",
"3 c #91062E",
"4 c #851133",
"5 c #8D1135",
"6 c #B70A3E",
"7 c #B70D3E",
"8 c #BE0B3F",
"9 c #C5033B",
"0 c #C8033C",
"q c #CF003C",
"w c #D0043F",
"e c #D0073F",
"r c #D8003E",
"t c #D9003E",
"y c #D8003F",
"u c #D9003F",
"i c #D8013F",
"p c #C50B40",
"a c #C70B42",
"s c #CC0941",
"d c #D50340",
"f c #D70240",
"g c #D30541",
"h c #D50441",
"j c #D90240",
"k c #668347",
"l c #698848",
"z c #6D8D49",
"x c #6E8E4D",
"c c #708F4C",
"v c #7D8C4A",
"b c #72934D",
"n c #7BA050",
"m c #7CA250",
"M c #7CA251",
"N c #7CA352",
"B c #82AB52",
"V c #82AD52",
/* pixels */
"                                ",
"                                ",
"                                ",
"               ,                ",
"              >*@ NVVVVVVN      ",
"              *2VVVVVVVVVx      ",
"             *vVVVVVVVVV1       ",
"             oVVVVVVVVk         ",
"            * nVc               ",
"           $   VVb              ",
"          %  + lVV<             ",
"         *   =  NVV             ",
"         X   o   zV             ",
"        -     -                 ",
"        *     &                 ",
"        *      =509             ",
"        *      uuuuuj           ",
"        >     uuuuuuuh          ",
"        @     uuuuuuuu          ",
"        .ef6 3uuuuuuuu          ",
"       guuuuueruuuuuuu          ",
"      7uuuuuuurfuuuuuu          ",
"      ruururruuuuruur           ",
"      ruruujuuq uuur            ",
"      uruurjurp                 ",
"      qrjrrruf                  ",
"       jurrru8                  ",
"        auju4                   ",
"                                ",
"                                ",
"                                ",
"                                "
};
