/* XPM */
static char *result[] = {
/* columns rows colors chars-per-pixel */
"32 32 39 1 ",
"  c #F7BA14",
". c #F9BB12",
"X c #FABB12",
"o c #FABC11",
"O c #FABC12",
"+ c #FCBD11",
"@ c #FDBE11",
"# c #FDBE12",
"$ c #FDBF15",
"% c #FDBF16",
"& c #FDBF17",
"* c #F3BA1F",
"= c #FDC01A",
"- c #FDC220",
"; c #FDC322",
": c #FDC427",
"> c #FDC52A",
", c #F7CB55",
"< c #EBC769",
"1 c #FAD36A",
"2 c #FAD26B",
"3 c #FDD872",
"4 c #13468D",
"5 c #1B4D92",
"6 c #FDDD86",
"7 c #FEEDBF",
"8 c #FEF2D0",
"9 c #CCD7E6",
"0 c #D5DEEB",
"q c #FFF9EB",
"w c #FFFAED",
"e c #FEFAEE",
"r c #FFFAEE",
"t c #FFFCF5",
"y c #FFFDF6",
"u c #FFFDF9",
"i c #FFFEFD",
"p c white",
"a c None",
/* pixels */
"aaaaaaaaaaaaaaaaaaaaaaaaaaaaaaaa",
"aaaaaaaaaaaaaaaaaaaaaaaaaaaaaaaa",
"aaaaaaaaaaaaaaaaaaaaaaaaaaaaaaaa",
"aaaaaaaaaaaaaaaaaaaaaaaaaaaaaaaa",
"aaaaaaaaaaaaaaaaaaaaaaaaaaaaaaaa",
"aaaaaaaaaaaaaaaaaaaaaaaaaaaaaaaa",
"aaaaaaaaaaaaaaaaaaaaaaaaaaaaaaaa",
"aaaaaaaaaaaaaaaaaaaaaaaaaaaaaaaa",
"aaaaaaaaaaaaaaaaaaaaaaaaaaaaaaaa",
"aaaaaaaaaaa1&@@@&2aaaaaaaaaaaaaa",
"aaaaaaaaaa=@@@@@@@=aaaaaaaaaaaaa",
"aaaaaaaaa&@@@@@@@@@&aaaaaaaaaaaa",
"aaaaaaaa,@@@@@@@@@@@,aaaaaaaaaaa",
"aaaaaaaa#@@:ty>@@6i8#aaaaaaaaaaa",
"aaaaaaaa@@@ep45@%p955aaaaaaaaaaa",
"aaaaaaaa@@@qp55@$p055aaaaaaaaaaa",
"aaaaaaaa@@@-wr;@@3u7@aaaaaaaaaaa",
"aaaaaaaa@@@@@@@@@@@@@aaaaaaaaaaa",
"aaaaaaaa@@@@@@@@@@@@@aaaaaaaaaaa",
"aaaaaaaa@@@@@@@@@@@@@aaaaaaaaaaa",
"aaaaaaaa@@@@@@@@@@@@@aaaaaaaaaaa",
"aaaaaaaa@@@@@@@@@@@@@aaaaaaaaaaa",
"aaaaaaaa@Xa+@Oa.@@a*@aaaaaaaaaaa",
"aaaaaaaaoaaa@aaa+<aa aaaaaaaaaaa",
"aaaaaaaaaaaaaaaaaaaaaaaaaaaaaaaa",
"aaaaaaaaaaaaaaaaaaaaaaaaaaaaaaaa",
"aaaaaaaaaaaaaaaaaaaaaaaaaaaaaaaa",
"aaaaaaaaaaaaaaaaaaaaaaaaaaaaaaaa",
"aaaaaaaaaaaaaaaaaaaaaaaaaaaaaaaa",
"aaaaaaaaaaaaaaaaaaaaaaaaaaaaaaaa",
"aaaaaaaaaaaaaaaaaaaaaaaaaaaaaaaa",
"aaaaaaaaaaaaaaaaaaaaaaaaaaaaaaaa"
};
