/* XPM */
static char *_e789f813bd64747d8bcb373bdfc7963UlFIIHX40Qfg1cpd[] = {
/* columns rows colors chars-per-pixel */
"32 32 47 1 ",
"  c None",
". c #EA1B24",
"X c #EB1B24",
"o c #ED1B24",
"O c #E81D26",
"+ c #E81E26",
"@ c #ED1D26",
"# c #EA1F28",
"$ c #E92028",
"% c #EA2029",
"& c #EA2129",
"* c #EB2129",
"= c #E9222B",
"- c #E9262E",
"; c #E92A32",
": c #EA2B33",
"> c #EE3038",
", c #EF3F46",
"< c #EE454A",
"1 c #EE454C",
"2 c #F0464D",
"3 c #F04C53",
"4 c #F15259",
"5 c #F15A60",
"6 c #DF7376",
"7 c #EF656C",
"8 c #EF676D",
"9 c #F26066",
"0 c #F1676C",
"q c #F3676D",
"w c #F36C71",
"e c #ED7277",
"r c #ED757A",
"t c #083F89",
"y c #E48185",
"u c #F28388",
"i c #F2848B",
"p c #F58488",
"a c #FEF9F9",
"s c #FFFBFB",
"d c #FAFBFD",
"f c #FFFCFC",
"g c #FFFDFD",
"h c #FDFEFE",
"j c #FFFEFE",
"k c #FEFEFF",
"l c white",
/* pixels */
"                                ",
"                                ",
"                                ",
"                                ",
"                                ",
"                                ",
"                                ",
"                                ",
"               040              ",
"            i@ooooo@u           ",
"           1ooooooooo<          ",
"          8ooooooooooo8         ",
"          oooottooootto         ",
"         roooptt2oowtt5e        ",
"         :ooogdg2ooggg5:        ",
"         &oooggg2ooggg5&        ",
"         &ooo9ga>oo3ga,#        ",
"         &ooooooooooooo&        ",
"         &ooooooooooooo&        ",
"         &ooooooooooooo&        ",
"         &ooooooooooooo&        ",
"         &ooooooooooooo&        ",
"         &oo.oooOoooo.o&        ",
"         -.  Ooy  oo  O&        ",
"              6                 ",
"                                ",
"                                ",
"                                ",
"                                ",
"                                ",
"                                ",
"                                "
};
