/* XPM */
static char *_09ece8a87704647aeb03b8997a3d2d7zzqejgrf5RYXZrTw[] = {
/* columns rows colors chars-per-pixel */
"32 32 36 1 ",
"  c None",
". c #023D89",
"X c #D39291",
"o c #D79694",
"O c #DB9F9F",
"+ c #E99A99",
"@ c #ED9B9A",
"# c #DDA09E",
"$ c #E6A19F",
"% c #ECA09E",
"& c #F1A19F",
"* c #DAA1A0",
"= c #DDADAC",
"- c #E6A2A1",
"; c #E3AFAE",
": c #F4A3A1",
"> c #F5A3A1",
", c #F6A5A3",
"< c #F6A6A4",
"1 c #F6A8A6",
"2 c #F6A9A7",
"3 c #F7ABA9",
"4 c #E4B1AF",
"5 c #F7B0AE",
"6 c #F7B3B1",
"7 c #FAC9C8",
"8 c #FACAC9",
"9 c #FACCCB",
"0 c #FACDCB",
"q c #CFD5E3",
"w c #FEF7F7",
"e c #FEF8F8",
"r c #FEF9F9",
"t c #FCFDFE",
"y c #FFFEFE",
"u c white",
/* pixels */
"                                ",
"                                ",
"                                ",
"                                ",
"                                ",
"                                ",
"                                ",
"                                ",
"            42,,,2;             ",
"           <,,,,,,,<            ",
"          ,,,,,,,,,,,           ",
"         ,,,,,,,,,,,,,          ",
"        X,,,,..,,,,..,o         ",
"        ,,,,r..9,,8..9,         ",
"        ,,,5tttq,,tttq6         ",
"        ,,,2tttq,,wttq3         ",
"        ,,,,8tr9,,2wt9,         ",
"        ,,,,,,,,,,,,,,,         ",
"        ,,,,,,,,,,,,,,,         ",
"        ,,,,,,,,,,,,,,,         ",
"        ,,,,,,,,,,,,,,,         ",
"        ,,,,,,,,,,,,,,,         ",
"        ,,,,,,,,,,,,,,,         ",
"        ,:  ,,# *,,O +:         ",
"        &   =%   $-   @         ",
"                                ",
"                                ",
"                                ",
"                                ",
"                                ",
"                                ",
"                                "
};
