/* XPM */
static char *result[] = {
/* columns rows colors chars-per-pixel */
"32 32 24 1 ",
"  c #F7BA14",
". c #F9BB12",
"X c #FABB12",
"o c #FABC11",
"O c #FABC12",
"+ c #FCBD11",
"@ c #FDBE11",
"# c #FDBE12",
"$ c #FDBF17",
"% c #F3BA1F",
"& c #FDC01A",
"* c #FDC322",
"= c #FDC52A",
"- c #F7CB55",
"; c #EBC769",
": c #FAD36A",
"> c #FAD26B",
", c #FDD872",
"< c #13468D",
"1 c #FDDD86",
"2 c #FEEDBF",
"3 c #FFFDF9",
"4 c white",
"5 c None",
/* pixels */
"55555555555555555555555555555555",
"55555555555555555555555555555555",
"55555555555555555555555555555555",
"55555555555555555555555555555555",
"55555555555555555555555555555555",
"55555555555555555555555555555555",
"55555555555555555555555555555555",
"55555555555555555555555555555555",
"55555555555555555555555555555555",
"55555555555:$@@@$>55555555555555",
"5555555555&@@@@@@@&5555555555555",
"555555555$@@@@@@@@@$555555555555",
"55555555-@@@@@@@@@@@-55555555555",
"55555555#@@111=@@111#55555555555",
"55555555@@<<43@@<<33@55555555555",
"55555555@@<<43@@<<33@55555555555",
"55555555@@@,22*@@,22@55555555555",
"55555555@@@@@@@@@@@@@55555555555",
"55555555@@@@@@@@@@@@@55555555555",
"55555555@@@@@@@@@@@@@55555555555",
"55555555@@@@@@@@@@@@@55555555555",
"55555555@@@@@@@@@@@@@55555555555",
"55555555@X5+@O5.@@5%@55555555555",
"55555555o555@555+;55 55555555555",
"55555555555555555555555555555555",
"55555555555555555555555555555555",
"55555555555555555555555555555555",
"55555555555555555555555555555555",
"55555555555555555555555555555555",
"55555555555555555555555555555555",
"55555555555555555555555555555555",
"55555555555555555555555555555555"
};
