/* XPM */
static char *result[] = {
/* columns rows colors chars-per-pixel */
"32 32 23 1 ",
"  c #F7BA14",
". c #F9BB12",
"X c #FABB12",
"o c #FABC11",
"O c #FABC12",
"+ c #FCBD11",
"@ c #FDBE11",
"# c #FDBE12",
"$ c #FDBF17",
"% c #F3BA1F",
"& c #FDC01A",
"* c #FDC322",
"= c #FDC52A",
"- c #F7CB55",
"; c #EBC769",
": c #FAD36A",
"> c #FAD26B",
", c #FDD872",
"< c #13468D",
"1 c #FDDD86",
"2 c #FFFDF9",
"3 c white",
"4 c None",
/* pixels */
"44444444444444444444444444444444",
"44444444444444444444444444444444",
"44444444444444444444444444444444",
"44444444444444444444444444444444",
"44444444444444444444444444444444",
"44444444444444444444444444444444",
"44444444444444444444444444444444",
"44444444444444444444444444444444",
"44444444444444444444444444444444",
"44444444444:$@@@$>44444444444444",
"4444444444&@@@@@@@&4444444444444",
"444444444$@@@@@@@@@$444444444444",
"44444444-@@@@@@@@@@@-44444444444",
"44444444#@@111=@@111#44444444444",
"44444444@@@,32@@@,22@44444444444",
"44444444@@@,32@@@,22@44444444444",
"44444444@@@,<<*@@,<<@44444444444",
"44444444@@@@<<@@@@<<@44444444444",
"44444444@@@@@@@@@@@@@44444444444",
"44444444@@@@@@@@@@@@@44444444444",
"44444444@@@@@@@@@@@@@44444444444",
"44444444@@@@@@@@@@@@@44444444444",
"44444444@X4+@O4.@@4%@44444444444",
"44444444o444@444+;44 44444444444",
"44444444444444444444444444444444",
"44444444444444444444444444444444",
"44444444444444444444444444444444",
"44444444444444444444444444444444",
"44444444444444444444444444444444",
"44444444444444444444444444444444",
"44444444444444444444444444444444",
"44444444444444444444444444444444"
};
