/* XPM */
static char *f945daf3725e4cc0b37bfcd96f43ebcf55JnMwayo5S3aB8a[] = {
/* columns rows colors chars-per-pixel */
"32 32 87 1 ",
"  c None",
". c #833E10",
"X c #9B2B2B",
"o c #9E2A2A",
"O c #A72E2E",
"+ c #A92E2E",
"@ c #AC2D2D",
"# c #AD2F2F",
"$ c #B52E2E",
"% c #B83A2C",
"& c #AF3030",
"* c #B53232",
"= c #CA3535",
"- c #CC3737",
"; c #D03737",
": c #D23B3B",
"> c #D73A3A",
", c #DC3C3C",
"< c #DD3C3C",
"1 c #DE3C3C",
"2 c #E03C3C",
"3 c #E13C3C",
"4 c #E13D3C",
"5 c #E03D3D",
"6 c #E13D3D",
"7 c #E23D3D",
"8 c #E33D3D",
"9 c #E33E3E",
"0 c #E43E3E",
"q c #E53F3F",
"w c #894212",
"e c #9B4C16",
"r c #9C4C15",
"t c #B04C1E",
"y c #B25719",
"u c #B6551C",
"i c #BA541F",
"p c #E84040",
"a c #E94040",
"s c #E94343",
"d c #EB4242",
"f c #EB4444",
"g c #F14444",
"h c #F04545",
"j c #F24545",
"k c #F34545",
"l c #F14646",
"z c #F44646",
"x c #F54646",
"c c #F64747",
"v c #F74747",
"b c #F84747",
"n c #F84848",
"m c #F94848",
"M c #F94A4A",
"N c #F94F4F",
"B c #FA5E5E",
"V c #FB6969",
"C c #FB7171",
"Z c #FB7474",
"A c #FB7777",
"S c #FB7979",
"D c #FC7D7D",
"F c #FC7F7F",
"G c #80AA4F",
"H c #8FB75E",
"J c #91B266",
"K c #92B46C",
"L c #96B96F",
"P c #92C957",
"I c #9EDB5F",
"U c #A1DF62",
"Y c #ACD37E",
"T c #A3E261",
"R c #A4E262",
"E c #A9E569",
"W c #B6E375",
"Q c #B0E973",
"! c #B4EA78",
"~ c #B7EC7D",
"^ c #FC8181",
"/ c #AED780",
"( c #B1DA83",
") c #BCEF84",
"_ c #C4F38E",
"` c #C6F491",
"' c #C7F492",
/* pixels */
"                                ",
"                                ",
"                                ",
"                                ",
"                   PTTTIG H     ",
"                  TTTTTTT~J     ",
"                 UTREQ!)''      ",
"              . eW_''''''K      ",
"              y r L'''''Y       ",
"              wy     (Y         ",
"         >777,%t&kmmmf          ",
"       X7777777uccmmmmm         ",
"       777777kaipcmmmmmm        ",
"      77777qbbmmmmmmmmBmm       ",
"      77777xmmmmmmmmmA^Vm       ",
"     ;7777qmmmmmmmmmmF^Fm:      ",
"     17777gmmmmmmmmmmZ^Sml      ",
"     77777mmmmmmmmmmmmCNmn      ",
"     17777mmmmmmmmmmmmmmmf      ",
"     @7777mmmmmmmmmmmmmmm*      ",
"      7777mmmmmmmmmmmmmmm       ",
"      7777xmmmmmmmmmmmmmc       ",
"       777pmmmmmmmmmmmmm        ",
"       7777xmmmmmmmmmmmc        ",
"        q37qbmmmmmmmmmm         ",
"        X7777xmmmmmmmmO         ",
"         #7773qakkxxk$          ",
"           77q-+=771            ",
"                                ",
"                                ",
"                                ",
"                                "
};
