/* XPM */
static char *result[] = {
/* columns rows colors chars-per-pixel */
"32 32 47 1 ",
"  c #EA1B24",
". c #EB1B24",
"X c #ED1B24",
"o c #E81D26",
"O c #E81E26",
"+ c #ED1D26",
"@ c #EA1F28",
"# c #E92028",
"$ c #EA2029",
"% c #EA2129",
"& c #EB2129",
"* c #E9222B",
"= c #E9262E",
"- c #E92A32",
"; c #EA2B33",
": c #EE3038",
"> c #EF3F46",
", c #EE454A",
"< c #EE454C",
"1 c #F0464D",
"2 c #F04C53",
"3 c #F15259",
"4 c #F15A60",
"5 c #DF7376",
"6 c #EF656C",
"7 c #EF676D",
"8 c #F26066",
"9 c #F1676C",
"0 c #F3676D",
"q c #F36C71",
"w c #ED7277",
"e c #ED757A",
"r c #083F89",
"t c #E48185",
"y c #F28388",
"u c #F2848B",
"i c #F58488",
"p c #FEF9F9",
"a c #FFFBFB",
"s c #FAFBFD",
"d c #FFFCFC",
"f c #FFFDFD",
"g c #FDFEFE",
"h c #FFFEFE",
"j c #FEFEFF",
"k c white",
"l c None",
/* pixels */
"llllllllllllllllllllllllllllllll",
"llllllllllllllllllllllllllllllll",
"llllllllllllllllllllllllllllllll",
"llllllllllllllllllllllllllllllll",
"llllllllllllllllllllllllllllllll",
"llllllllllllllllllllllllllllllll",
"llllllllllllllllllllllllllllllll",
"llllllllllllllllllllllllllllllll",
"lllllllllllllll930llllllllllllll",
"llllllllllllu+XXXXX+ylllllllllll",
"lllllllllll<XXXXXXXXX,llllllllll",
"llllllllll7XXXXXXXXXXX6lllllllll",
"llllllllllXXXXXXXXXXXXXlllllllll",
"llllllllleXXXikk1XXqkk4wllllllll",
"lllllllll;XXXksrrXXkjrr-llllllll",
"lllllllll%XXXkgrrXXhkrr#llllllll",
"lllllllll%XXX8fp:XX2da>@llllllll",
"lllllllll%XXXXXXXXXXXXX#llllllll",
"lllllllll&XXXXXXXXXXXXX#llllllll",
"lllllllll&XXXXXXXXXXXXX#llllllll",
"lllllllll%XXXXXXXXXXXXX#llllllll",
"lllllllll$XXXXXXXXXXXXX#llllllll",
"lllllllll%XX XXXoXXXX.X#llllllll",
"lllllllll=.lloXtllXXllO*llllllll",
"llllllllllllll5lllllllllllllllll",
"llllllllllllllllllllllllllllllll",
"llllllllllllllllllllllllllllllll",
"llllllllllllllllllllllllllllllll",
"llllllllllllllllllllllllllllllll",
"llllllllllllllllllllllllllllllll",
"llllllllllllllllllllllllllllllll",
"llllllllllllllllllllllllllllllll"
};
