/* XPM */
static char *a2f05fc87f1744edb4fa080fd8bd15a7Q7J8NIYnY4qkfIMp[] = {
/* columns rows colors chars-per-pixel */
"32 32 33 1 ",
"  c None",
". c #023D89",
"X c #D39291",
"o c #D79694",
"O c #DB9F9F",
"+ c #E99A99",
"@ c #ED9B9A",
"# c #DDA09E",
"$ c #E6A19F",
"% c #ECA09E",
"& c #F1A19F",
"* c #DAA1A0",
"= c #DDADAC",
"- c #E6A2A1",
"; c #E3AFAE",
": c #F4A3A1",
"> c #F5A3A1",
", c #F6A5A3",
"< c #F6A6A4",
"1 c #F6A9A7",
"2 c #F7ABA9",
"3 c #E4B1AF",
"4 c #F7B0AE",
"5 c #F7B3B1",
"6 c #FAC9C8",
"7 c #FACAC9",
"8 c #FACCCB",
"9 c #FACDCB",
"0 c #CFD5E3",
"q c #FEF7F7",
"w c #FCFDFE",
"e c #FFFEFE",
"r c white",
/* pixels */
"                                ",
"                                ",
"                                ",
"                                ",
"                                ",
"                                ",
"                                ",
"                                ",
"            31,,<<;             ",
"           <,,,,<<<<            ",
"          ,,,,,,<,,,<           ",
"         ,,,,,,,,,,<<<          ",
"        X,,,,,<,,,,,<<o         ",
"        ,,,,4ww9,,6ww9<         ",
"        ,,,,www0<<www05         ",
"        ,,,,qww0<<qww02         ",
"        ,,,,7..9<,7..9,         ",
"        ,,,,,..,<,<..,,         ",
"        ,,,,,,,,<<<<,,,         ",
"        ,,,,,,,,&<<&,,,         ",
"        ,,,,,,,,,,,,,,,         ",
"        ,,,,,,,,,,,,,,,         ",
"        ,,,,,,,,,,,,,,,         ",
"        ,>  ,,# $,,O +>         ",
"        &   =%   $-   @         ",
"                                ",
"                                ",
"                                ",
"                                ",
"                                ",
"                                ",
"                                "
};
