/* XPM */
static char *_91ddfc320464c67e18c5c449af2910bPip1BgQgxO8WJjhE[] = {
/* columns rows colors chars-per-pixel */
"32 32 33 1 ",
"  c None",
". c #023D89",
"X c #D39291",
"o c #D79694",
"O c #DB9F9F",
"+ c #E99A99",
"@ c #ED9B9A",
"# c #DDA09E",
"$ c #E6A19F",
"% c #ECA09E",
"& c #F1A19F",
"* c #DAA1A0",
"= c #DDADAC",
"- c #E6A2A1",
"; c #E3AFAE",
": c #F4A3A1",
"> c #F5A3A1",
", c #F6A5A3",
"< c #F6A6A4",
"1 c #F6A9A7",
"2 c #F7ABA9",
"3 c #E4B1AF",
"4 c #F7B3B1",
"5 c #FACAC9",
"6 c #FACCCB",
"7 c #FACDCB",
"8 c #CFD5E3",
"9 c #FEF7F7",
"0 c #FEF8F8",
"q c #FEF9F9",
"w c #FCFDFE",
"e c #FFFEFE",
"r c white",
/* pixels */
"                                ",
"                                ",
"                                ",
"                                ",
"                                ",
"                                ",
"                                ",
"                                ",
"            31,,,1;             ",
"           <,,,,,,,<            ",
"          ,,,,,,,,,,,           ",
"         ,,,,,,,,,,,,,          ",
"        X,,,,,<,,,,,<,o         ",
"        ,,,,qww7,,www7,         ",
"        ,,..www8<..ww84         ",
"        ,,..www8,..ww82         ",
"        ,,,,5wq7,,w0w7,         ",
"        ,,,,,,,,,,,,,,,         ",
"        ,,,,,,,,,,,,,,,         ",
"        ,,,,,,,,,,,,,,,         ",
"        ,,,,,,,,,,,,,,,         ",
"        ,,,,,,,,,,,,,,,         ",
"        ,,,,,,,,,,,,,,,         ",
"        ,>  ,,# *,,# +>         ",
"        &   =%   $-   @         ",
"                                ",
"                                ",
"                                ",
"                                ",
"                                ",
"                                ",
"                                "
};
