/* XPM */
static char *_8300c05ddda490c9b8a7d345e23cb9ctTaiIkgeCUM2mcuJ[] = {
/* columns rows colors chars-per-pixel */
"32 32 33 1 ",
"  c None",
". c #023D89",
"X c #D39291",
"o c #D79694",
"O c #DB9F9F",
"+ c #E99A99",
"@ c #ED9B9A",
"# c #DDA09E",
"$ c #E6A19F",
"% c #ECA09E",
"& c #F1A19F",
"* c #DAA1A0",
"= c #DDADAC",
"- c #E6A2A1",
"; c #E3AFAE",
": c #F4A3A1",
"> c #F5A3A1",
", c #F6A5A3",
"< c #F6A6A4",
"1 c #F6A8A6",
"2 c #F6A9A7",
"3 c #E4B1AF",
"4 c #F7B0AE",
"5 c #FAC9C8",
"6 c #FACAC9",
"7 c #FACCCB",
"8 c #FACDCB",
"9 c #FEF7F7",
"0 c #FEF8F8",
"q c #FEF9F9",
"w c #FCFDFE",
"e c #FFFEFE",
"r c white",
/* pixels */
"                                ",
"                                ",
"                                ",
"                                ",
"                                ",
"                                ",
"                                ",
"                                ",
"            32,,,23             ",
"           <,,,,,,,<            ",
"          ,,,,,,,,,,,           ",
"         ,,,,,,,,,,,,,          ",
"        X,,,,,<,,,,,<,o         ",
"        ,,,,qww8,,5ww8,         ",
"        ,,,4www..,www..         ",
"        ,,,2www..,qww..         ",
"        ,,,,5wq8,,29w8,         ",
"        ,,,,,,,,,,,,,,,         ",
"        ,,,,,,,,,,,,,,,         ",
"        ,,,,,,,,,,,,,,,         ",
"        ,,,,,,,,,,,,,,,         ",
"        ,,,,,,,,,,,,,,,         ",
"        ,,,,,,,,,,,<,,,         ",
"        ,,  ,,# #,,# +:         ",
"        &   =%   $-   @         ",
"                                ",
"                                ",
"                                ",
"                                ",
"                                ",
"                                ",
"                                "
};
