/* XPM */
static char *_b2057935dde47f58c6fcefc47247d46JSsL4HgMPU3tnlSt[] = {
/* columns rows colors chars-per-pixel */
"32 32 33 1 ",
"  c None",
". c #093F89",
"X c #75CBED",
"o c #76CCEE",
"O c #7BC9E8",
"+ c #7DC9E8",
"@ c #74CDF0",
"# c #74CEF1",
"$ c #75D0F5",
"% c #76D2F7",
"& c #77D2F7",
"* c #78D3F7",
"= c #7BD4F7",
"- c #7CD4F7",
"; c #7ED5F7",
": c #85CAE5",
"> c #88CAE4",
", c #8ACDE5",
"< c #9ACDE4",
"1 c #8CD3F0",
"2 c #8CD4F1",
"3 c #87D8F8",
"4 c #8BD9F8",
"5 c #A5DFF6",
"6 c #AEE4F9",
"7 c #B1E5FA",
"8 c #F3FBFE",
"9 c #F4FBFE",
"0 c #FAFBFC",
"q c #FCFCFD",
"w c #FDFEFE",
"e c #FDFEFF",
"r c white",
/* pixels */
"                                ",
"                                ",
"                                ",
"                                ",
"                                ",
"                                ",
"                                ",
"                                ",
"            5-%%%-5             ",
"           *%%%%%%%*            ",
"          %%%%%%%%%%%           ",
"         %%%%%%%%%%%%%          ",
"        2%%%%4=%%%%%*%1         ",
"        %%%%ee07%%*ee7%         ",
"        %%%..ee7*..ee74         ",
"        %%%..qe7%..ee7-         ",
"        %%%%6e9-%%-8e7%         ",
"        %%%%%%%%%%%%%%%         ",
"        %%%%%%%%%%%%%%%         ",
"        %%%%%%%%%%%%%%%         ",
"        %%%%%%%%%%%%%%%         ",
"        %%%%%%%%%%%%%%%         ",
"        %%%%%%%%%%%%%%%         ",
"        %%  %%: >%%, o%         ",
"        @   <o   O+   @         ",
"                                ",
"                                ",
"                                ",
"                                ",
"                                ",
"                                ",
"                                "
};
