/* XPM */
static char *fe8542da59da45009cf6617d0da43597ODCVBAF8f7aiHStO[] = {
/* columns rows colors chars-per-pixel */
"32 32 193 2 ",
"   c None",
".  c #A15D2C",
"X  c #A45531",
"o  c #A05638",
"O  c #A05639",
"+  c #A35839",
"@  c #8C6B32",
"#  c #A6662E",
"$  c #B16128",
"%  c #C0791F",
"&  c #D57A1F",
"*  c #D07D1E",
"=  c #DB7A1F",
"-  c #DB7D1E",
";  c #DB7C1F",
":  c #DB7D1F",
">  c #DC7E1E",
",  c #DC7F1E",
"<  c #C36925",
"1  c #C46925",
"2  c #C76D24",
"3  c #CA6D24",
"4  c #D17322",
"5  c #D37621",
"6  c #DA7920",
"7  c #DA7A20",
"8  c #A05841",
"9  c #A35B43",
"0  c #A56043",
"q  c #AC6A40",
"w  c #A7634F",
"e  c #A86649",
"r  c #A66551",
"t  c #A66654",
"y  c #A76857",
"u  c #AA6C5B",
"i  c #AD6F5F",
"p  c #AF7464",
"a  c #5DAC36",
"s  c #52C137",
"d  c #53C337",
"f  c #54C537",
"g  c #54C637",
"h  c #54C737",
"j  c #55C737",
"k  c #55C837",
"l  c #52C438",
"z  c #53C538",
"x  c #54C638",
"c  c #57C73A",
"v  c #57C73B",
"b  c #5EC843",
"n  c #5EC844",
"m  c #64C94C",
"M  c #66C94E",
"N  c #69CA52",
"B  c #75CD61",
"V  c #BE8027",
"C  c #C88315",
"Z  c #D4861A",
"A  c #DB851B",
"S  c #DF861B",
"D  c #DF871B",
"F  c #DC801D",
"G  c #DD801D",
"H  c #DD811D",
"J  c #DD821C",
"K  c #DE831C",
"L  c #DE841C",
"P  c #DF881A",
"I  c #D19310",
"U  c #D99014",
"Y  c #E08F17",
"T  c #E08A19",
"R  c #E08B19",
"E  c #E18B19",
"W  c #E0891A",
"Q  c #E18D18",
"!  c #E18C19",
"~  c #E18E18",
"^  c #E28F18",
"/  c #E29017",
"(  c #E29117",
")  c #E39117",
"_  c #E39216",
"`  c #E39316",
"'  c #E49415",
"]  c #E49515",
"[  c #E59714",
"{  c #E49615",
"}  c #E59715",
"|  c #E49416",
" . c #E69A13",
".. c #E69B13",
"X. c #E79C12",
"o. c #E79D12",
"O. c #E69C13",
"+. c #E79C13",
"@. c #E79E12",
"#. c #E59814",
"$. c #E69914",
"%. c #E89F11",
"&. c #E7A60E",
"*. c #EAA50F",
"=. c #EAA70E",
"-. c #EAA60F",
";. c #EAA70F",
":. c #EDAF0B",
">. c #EBAA0D",
",. c #EAA80E",
"<. c #EBA80E",
"1. c #EBA90E",
"2. c #ECAA0D",
"3. c #ECAB0D",
"4. c #ECAC0C",
"5. c #EDAD0C",
"6. c #ECAC0D",
"7. c #ECB10A",
"8. c #EDB00B",
"9. c #EEB10A",
"0. c #EEB00B",
"q. c #EEB10B",
"w. c #EEB20A",
"e. c #EEB30A",
"r. c #EFB30A",
"t. c #EFB409",
"y. c #EFB509",
"u. c #F1B907",
"i. c #F1BA07",
"p. c #F1BB07",
"a. c #F2BB07",
"s. c #F3BE05",
"d. c #F3BF05",
"f. c #F2BC06",
"g. c #F2BD06",
"h. c #F2BE06",
"j. c #F0B608",
"k. c #F0B708",
"l. c #F0B609",
"z. c #F0B808",
"x. c #F2BF0A",
"c. c #E8A011",
"v. c #E8A111",
"b. c #E9A210",
"n. c #E9A310",
"m. c #E9A410",
"M. c #F3C005",
"N. c #F3C106",
"B. c #F4C106",
"V. c #F4C207",
"C. c #F5C613",
"Z. c #F5C717",
"A. c #F5C81D",
"S. c #F5C91F",
"D. c #F5C922",
"F. c #F5CA25",
"G. c #F6CB28",
"H. c #F6CD2F",
"J. c #F4CA31",
"K. c #F6CE38",
"L. c #F6CF38",
"P. c #B78273",
"I. c #80D06E",
"U. c #80D06F",
"Y. c #81D06F",
"T. c #88D378",
"R. c #8AD379",
"E. c #F7D245",
"W. c #F7D247",
"Q. c #F8D961",
"!. c #F8D962",
"~. c #F8D964",
"^. c #F8DA67",
"/. c #F9DB6D",
"(. c #F9DF7A",
"). c #BD8D84",
"_. c #BE8F84",
"`. c #BE9083",
"'. c #BE9084",
"]. c #C2948A",
"[. c #C69C92",
"{. c #CAA29A",
"}. c #9FD992",
"|. c #A4DB98",
" X c #A5DC9C",
".X c #F9E080",
"XX c #FAE288",
"oX c #FAE594",
"OX c #FAE595",
"+X c #FBEBAC",
"@X c #FCECB3",
"#X c #FDF3CD",
"$X c #FDF5D5",
/* pixels */
"                                                                ",
"                                                                ",
"                                                                ",
"                                                                ",
"                    U.                                          ",
"                    b f k R.                        |.M k       ",
"                      k h k n               U.v k k h k k       ",
"                      M f c k U.      }.k k k k h s k k  X      ",
"                        M k f k     v k h h h s k k k B         ",
"                            c l   k k s s h h k k k R.          ",
"                          P.# # @ a h k k k k k N               ",
"                      V K.L.G.f.i.e.I .                         ",
"                  e x.E.(.XX^.F.s.j.:.=.C `.                    ",
"                0 f.Z.^.@X$XoXW.B.i.e.2.n.U _.                  ",
"              ].e.f.C.Q.+X#XoXW.B.i.e.2.n.O.Z                   ",
"              % e.i.B.K./..XQ.G.f.j.e.>.n...| +                 ",
"              >.:.j.f.B.D.H.A.f.f.j.5.>.v..._ *                 ",
"            r =.2.e.z.i.f.M.f.x.j.q.2.m.O.$._ P                 ",
"            O v.>.2.e.e.i.j.j.r.e.5.>.n.O.` ~ S _.              ",
"            O $.n.=.>.2.:.e.q.5.2.m.n.$.$._ P L _.              ",
"            y $.$.n.n.m.m.2.=.m.n.%.O.[ _ Y P F                 ",
"              ~ ` $...n.n.n.n.%.O.$.| _ E W J 3                 ",
"              $ ~ _ | $.$.$.%.| | | _ ~ W J - 8                 ",
"                A ~ ~ _ _ _ _ ~ _ ~ P S J - 1                   ",
"                y J E E E E E E E W W J ; 4 {.                  ",
"                  i 5 J L J J W J 7 7 7 1                       ",
"                      X 5 - 7 - 7 6 3 8                         ",
"                          [.u w p                               ",
"                                                                ",
"                                                                ",
"                                                                ",
"                                                                "
};
