/* XPM */
static char *b7c933d9152b47c0ba6962d625020aa5I5lCj9UOwh19Ugqj[] = {
/* columns rows colors chars-per-pixel */
"32 32 139 2 ",
"   c None",
".  c #187019",
"X  c #19701A",
"o  c #1A711A",
"O  c #1A711B",
"+  c #1C721D",
"@  c #1C731D",
"#  c #1D731D",
"$  c #1E741F",
"%  c #227622",
"&  c #237623",
"*  c #247825",
"=  c #257826",
"-  c #297B2A",
";  c #2F7E2F",
":  c #2F7E30",
">  c #307E30",
",  c #E20016",
"<  c #E20116",
"1  c #E20117",
"2  c #E20216",
"3  c #E20217",
"4  c #E20317",
"5  c #E20318",
"6  c #E20418",
"7  c #E20419",
"8  c #E20519",
"9  c #E2051A",
"0  c #E2061A",
"q  c #E2061B",
"w  c #E2071B",
"e  c #E3071B",
"r  c #E3071C",
"t  c #E2081B",
"y  c #E3081C",
"u  c #E3081D",
"i  c #E3091D",
"p  c #E20A1E",
"a  c #E30A1E",
"s  c #E30B1E",
"d  c #E30B1F",
"f  c #E30C1F",
"g  c #E30D20",
"h  c #E30E21",
"j  c #E30F21",
"k  c #E30E22",
"l  c #E30F22",
"z  c #E31023",
"x  c #E31123",
"c  c #E31124",
"v  c #E41325",
"b  c #E41427",
"n  c #E41527",
"m  c #E41628",
"M  c #E41729",
"N  c #E4192A",
"B  c #E4192B",
"V  c #E41A2B",
"C  c #E51D2E",
"Z  c #E52030",
"A  c #E52031",
"S  c #E52233",
"D  c #E62737",
"F  c #E32938",
"G  c #E62838",
"H  c #E62A39",
"J  c #E62A3B",
"K  c #E62C3B",
"L  c #E62C3C",
"P  c #E62D3C",
"I  c #E73140",
"U  c #E73240",
"Y  c #E33542",
"T  c #E73644",
"R  c #E63846",
"E  c #E73847",
"W  c #E83846",
"Q  c #E83C4A",
"!  c #E8414E",
"~  c #E94250",
"^  c #E94552",
"/  c #E84652",
"(  c #E84753",
")  c #E94A57",
"_  c #EA505B",
"`  c #EA515D",
"'  c #EB5662",
"]  c #EB5762",
"[  c #EB5963",
"{  c #EC626C",
"}  c #EC626D",
"|  c #EC6670",
" . c #ED6771",
".. c #ED6A74",
"X. c #ED6B75",
"o. c #ED6C76",
"O. c #ED6D77",
"+. c #EC6E76",
"@. c #318031",
"#. c #318033",
"$. c #358236",
"%. c #39853B",
"&. c #418941",
"*. c #418942",
"=. c #438A43",
"-. c #518B4B",
";. c #538E4F",
":. c #4C904C",
">. c #4E914E",
",. c #578E50",
"<. c #539453",
"1. c #599052",
"2. c #5E9C60",
"3. c #609C60",
"4. c #659D65",
"5. c #67A067",
"6. c #7AAB7A",
"7. c #7FB07F",
"8. c #EE7B83",
"9. c #EE7B84",
"0. c #EF7C84",
"q. c #F07D84",
"w. c #82B282",
"e. c #87B487",
"r. c #EF8088",
"t. c #F0828A",
"y. c #F1999F",
"u. c #F39DA3",
"i. c #F3A1A6",
"p. c #F3A3A8",
"a. c #F4A9AE",
"s. c #F4AAAF",
"d. c #F5B0B4",
"f. c #F5B2B6",
"g. c #F5B4B8",
"h. c #F6BBBE",
"j. c #FAE0E2",
"k. c #FBE2E3",
"l. c #FBECEC",
/* pixels */
"                                                                ",
"                                                                ",
"                                                                ",
"                    #.w.            ;                           ",
"                      . 2.        # .                           ",
"                >.    #.. e.    % .       >                     ",
"                # . .   = .   5.. 2.*.. . 6.                    ",
"                  $ . . . . $.. X . X X <.                      ",
"              7.>.%.. . . . . . . . . & *.4.                    ",
"                = $ -.;.- . . . . > ,.1.= *.                    ",
"                  8 , , 8 N Y F s , , , 8                       ",
"              ( , , , ( , , , , , T s , q., (                   ",
"              ,  .M , 8.s , n ! , ) M , i., ,                   ",
"            , , z , , , , , f S , , , , , , , 5                 ",
"            , z , , , , h., , , , Q s n I , [ ,                 ",
"            , l., f., , { , O.C , Q b b J 5 p.,                 ",
"            , 8 , O., , , , 8 , , S , , , , , ,                 ",
"            , , ] , , , ] P , , s a., ` W Q 8 ,                 ",
"            8 s } , , ! 6 , , n , , j , , { z 8                 ",
"            q., , H f O., , N t., , l., N , , 9.                ",
"              8 , k., , V s , , j , s , j., 8                   ",
"                , , , 8 _ F 8 , r.Z , , 8 ,                     ",
"                O., f u., , f.t , , g., , O.                    ",
"                  P , e 8 f y , 8 , D , K                       ",
"                    k , P [ , , s.8 , j                         ",
"                      k , , r.N s , j                           ",
"                        E , 8 , , W                             ",
"                            y.                                  ",
"                                                                ",
"                                                                ",
"                                                                ",
"                                                                "
};
