/* XPM */
static char *_54c181227e04023f9c120f1dfca21a0mDzWGUfXrdgdvrJM[] = {
/* columns rows colors chars-per-pixel */
"32 32 25 1 ",
"  c #313232",
". c #323333",
"X c #353636",
"o c #464647",
"O c #464747",
"+ c #4C4C4D",
"@ c #515252",
"# c #656666",
"$ c #6E6F6F",
"% c #6E6F70",
"& c #808081",
"* c #9F9FA0",
"= c #B3B4B5",
"- c #B8B8B9",
"; c #C3C5C5",
": c #C8C9CA",
"> c #CCCECF",
", c #DEE0E0",
"< c #E3E4E5",
"1 c #F4F6F7",
"2 c #F5F7F8",
"3 c #F7F8F9",
"4 c #F9FBFC",
"5 c #FBFDFE",
"6 c #FCFEFF",
/* pixels */
"66666666666666666666666666666666",
"66666666666666666666666666666666",
"66666666666666666666666666666666",
"66666666666666666666666666666666",
"66666666666666666666666666666666",
"66666666666666666665666566666666",
"66666666666566566565655566666666",
"66666666666555455554545445566666",
"666666666664X   16#  +%   =66666",
"66666666664X   366# +6%   =66666",
"6666666664X   1666#+66$   =56666",
"666666664X   16666&666$   =56666",
"66666664X   266666666,   O666666",
"6666664X   166666666,   O6666666",
"666664X   266666666,   O66666666",
"66664X   165655556,   O666666666",
"6666;           @6#   -66<=66666",
"6666;           @6#   -6< =66666",
"6666;           @6#   -<  =66666",
"666663333333:   @6#   *   =66666",
"666666666666>   @666666666666666",
"666666666666>   @666666666666666",
"666666666666>   @666666666666666",
"66666666666662222666666666666666",
"66666666666666666666666666666666",
"66666666666666666666666666666666",
"66666666666666666666666666666666",
"66666666666666666666666666666666",
"66666666666666666666666666666666",
"66666666666666666666666666666666",
"66666666666666666666666666666666",
"66666666666666666666666666666666"
};
